<svg id="Calque_1" data-name="Calque 1" xmlns="http://www.w3.org/2000/svg" xmlns:xlink="http://www.w3.org/1999/xlink" viewBox="0 0 107.45 109.6"><defs><style>.cls-1{fill:url(#Dégradé_sans_nom_12);}.cls-2{fill:#cd9777;}.cls-3{fill:#6d6875;}.cls-4{fill:#b07d62;}.cls-5{fill:none;}.cls-5,.cls-6,.cls-7{stroke:#cd9777;stroke-miterlimit:10;}.cls-6,.cls-7{stroke-width:2px;}.cls-6{fill:url(#Dégradé_sans_nom_3);}.cls-7{fill:url(#Dégradé_sans_nom_2);}</style><linearGradient id="Dégradé_sans_nom_12" x1="600.78" y1="343.17" x2="655.23" y2="343.17" gradientUnits="userSpaceOnUse"><stop offset="0" stop-color="#cce0f4"/><stop offset="0.09" stop-color="#c3dbf2"/><stop offset="0.23" stop-color="#a9ceeb"/><stop offset="0.42" stop-color="#80b8e0"/><stop offset="0.63" stop-color="#469ad1"/><stop offset="0.87" stop-color="#0075be"/><stop offset="0.99" stop-color="#005b97"/></linearGradient><linearGradient id="Dégradé_sans_nom_3" x1="0.81" y1="55.06" x2="50.22" y2="55.06" gradientUnits="userSpaceOnUse"><stop offset="0" stop-color="#d69f7e"/><stop offset="0.69" stop-color="#d49d7c"/><stop offset="1" stop-color="#cd9777"/></linearGradient><linearGradient id="Dégradé_sans_nom_2" x1="651" y1="312.88" x2="699.34" y2="312.88" gradientUnits="userSpaceOnUse"><stop offset="0" stop-color="#d69f7e"/><stop offset="0.67" stop-color="#d49d7c"/><stop offset="1" stop-color="#cd9777"/></linearGradient></defs><title>tent</title><path class="cls-1" d="M605.76,318.94q.3,0,.24.18s.14.08.42.12a1.64,1.64,0,0,1,1.08.48,4.89,4.89,0,0,1,1.56,2.22q.06.24.18.78t.18,1q.06.42.18,1.17a12.79,12.79,0,0,1,.15,1.53q0,.78,0,1.89t-.15,2.37q-.18,2.52-.18,2.67t-.06,1.65a14.52,14.52,0,0,0,.06,1.77.38.38,0,0,0,.42.33l.24-.06s.08-.06.24-.06H611a9,9,0,0,1,1,.06,8.44,8.44,0,0,0,2.16-.06.4.4,0,0,1,.36-.06.38.38,0,0,1,.24.3,1.66,1.66,0,0,0,.48.84q.12.06-.12.27t-.06.27s-.08.06-.24.06-.44.06-.48.18v.12q.12-.06.12.06t-1.14.15q-1.14,0-2,.12a9.29,9.29,0,0,1-1.41.06q-.54,0-.54.21a9.6,9.6,0,0,0,0,1.62q.06,2.76-.18,7.74-.06,1.14-.18,3.06t-.18,3.72q-.06,1.5-.09,2.37t0,1.08a1.23,1.23,0,0,0,.06.39,1,1,0,0,1,.06.3,1.33,1.33,0,0,1,.06.42,2.58,2.58,0,0,0,0,.42.46.46,0,0,0,.09.24q1.74,3.6,4.32,1.14.54-.6.54-.48l.48-.48a4.52,4.52,0,0,1,.51-.6,6.48,6.48,0,0,0,.63-.81,12.54,12.54,0,0,1,.93-1.17,3,3,0,0,0,.57-.84,9.94,9.94,0,0,1,1.74-2.16q.3-.3.24-.36l.06-.06.12-.12s0-.22.21-.54.32-.48.42-.48.12-.05.06-.15,0-.31.27-.63a1.76,1.76,0,0,0,.36-.6q0-.12.21-.27t.15-.27.06-.12.18-.18a1.38,1.38,0,0,1,.12-.42q.12-.3.24-.54t.18-.18.48.24q.66.12.75.36t-.27.78a3.9,3.9,0,0,0-.48.9,10.11,10.11,0,0,1-1.14,1.8q-1.8,2.4-1.62,2.58h-.06s-.1,0-.18,0a.37.37,0,0,0-.12.48q.12.12-.15.27t-.18.18,0,.33l.06.12q.18-.24.18-.06t-.51.75a15.63,15.63,0,0,0-1,1.23q-1,1.2-1.14,1.08l-.06.06q.06.18-.18.42t-.24.18a.74.74,0,0,1,.12-.3l-.3.3-.12.12h.06l.12-.06q.24.06-1.2,1.56a11.52,11.52,0,0,1-1.2,1.14,3.66,3.66,0,0,1-.9.66.42.42,0,0,0-.33.21q-.15.21-.15.12t-.3.09q-.3.18-.42.06v.12s-.14.08-.42.12a7.63,7.63,0,0,1-1,.06,2.67,2.67,0,0,1-1-.18,6.52,6.52,0,0,1-1.8-1.11,3.61,3.61,0,0,1-.84-1.11q-.24-.54-.9-2.28a9.47,9.47,0,0,1-.48-3.24l.06-3.66c0-1.52,0-3.43.12-5.73s.16-4.28.24-5.94a27,27,0,0,0,.06-2.91v-.9l-1.08-.12a3.33,3.33,0,0,1-1.17-.18.94.94,0,0,0-.57-.12l-.3-.06q.24-.06.15-.15a1.16,1.16,0,0,0-.39-.21,1.18,1.18,0,0,1-.27-.12c-.06,0-.06-.1,0-.18s0-.18-.06-.18-.09-.06-.06-.18,0-.19-.18-.21-.24-.07-.24-.15a1.64,1.64,0,0,0-.06-.36l.06-.06a.36.36,0,0,0,.42,0,.84.84,0,0,1,.6-.09,10.4,10.4,0,0,0,1.77.15,3.43,3.43,0,0,0,1.35-.09q.18-.12.18-.6t-.06-4.77q0-4.35.06-4.71a7.53,7.53,0,0,0,.09-1q0-.72.06-1.47t0-1.77q0-1,.06-1.68.06-1.56.12-1.86t.24-.3Zm13.56,36.48s.09,0,.15-.12,0-.12-.06-.12-.15,0-.15.12S619.28,355.42,619.32,355.42Zm.48-.12a2.7,2.7,0,0,0-.48.66q-.12.24.12,0t.18-.06q.24-.06.78-.9.24-.42.12-.42T619.8,355.3Zm2.16-3.42q-.06.18.09.18t.15-.06s0-.08-.12-.12l-.06-.06A.05.05,0,0,0,622,351.88Z" transform="translate(-600.78 -257.87)"/><path class="cls-1" d="M639.72,350.92a12.6,12.6,0,0,1-.81,1.29q-.45.63-.69,1t-.66,1a9.57,9.57,0,0,1-.81,1q-.39.42-.51.42a.16.16,0,0,0-.18.18q0,.18-.33.45t-.45.21s-.07-.05-.09,0a.24.24,0,0,0,0,.15q.06.12-.12.12t-.12.12a1.84,1.84,0,0,1-.36.45,1.7,1.7,0,0,1-.54.45l-.57.12-.42.06a.44.44,0,0,0-.24.12.4.4,0,0,0-.09.42,2.9,2.9,0,0,1,0,.84,15.05,15.05,0,0,0,.27,2q.21,1.05.39,1.17a.67.67,0,0,1,.06.3q0,.36,1,1.5a7.75,7.75,0,0,0,1.44,1.44q.24.12.9-.27a6,6,0,0,0,1.2-.93l.48-.45.63-.57a6.87,6.87,0,0,0,.54-.54,1.35,1.35,0,0,0,.33-.54q.06-.24.18-.24s.12-.11.24-.33.22-.31.3-.27h.12q-.06-.12.36-.72a3.86,3.86,0,0,0,.42-.66,3.27,3.27,0,0,1,.66-1q.78-1,.6-1s.07-.13.33-.39a11,11,0,0,0,.84-1,2.46,2.46,0,0,0,.51-.87,4.14,4.14,0,0,1,.42-.9,4.14,4.14,0,0,0,.42-.9.11.11,0,0,1,.12-.12s.1-.06.18-.18a2.35,2.35,0,0,0,.24-.54l.3-.6s0-.08.09-.12a.76.76,0,0,0,.18-.18.36.36,0,0,0,.09-.18,2,2,0,0,1,.39-.9q.39-.6.45-.72.18-.42.33-.48t.45.18q.18.24.15.09t.09-.15q.18,0,.12.24t0,.12l.15-.06q.18-.18.3-.06t.09.6a2.21,2.21,0,0,1-.57.9,2.34,2.34,0,0,0-.42.6,1.42,1.42,0,0,1-.24.51,2,2,0,0,0-.24.45.66.66,0,0,1-.24.42,6.23,6.23,0,0,0-1,1.74,1,1,0,0,1-.09.27,2.42,2.42,0,0,1-.21.39,3.06,3.06,0,0,0-.24.45l-.21.48a1.72,1.72,0,0,0-.12.39,1.89,1.89,0,0,0,0,.3.5.5,0,0,1-.12.48q-.12.06-.12.15v.21a.19.19,0,0,1-.12.18,4.15,4.15,0,0,0-1,1.38,3.81,3.81,0,0,1-.9,1.44q-.3.24-.3.39t-.12.15-.21.18a1.14,1.14,0,0,1-.21.3.35.35,0,0,1-.24.12q-.24-.12-.24.06t.12.06.12.06-.24.12a.68.68,0,0,0-.45.18.48.48,0,0,0-.21.33q0,.15.12.09l.12-.06s0,.08-.12.24-.3.24-.3.12q-.3.18-.3.36t-.12.12a.1.1,0,0,0-.12,0,.1.1,0,0,0-.06.09.1.1,0,0,1-.06.09s-.07,0-.09,0a0,0,0,0,0-.06,0s0,.05,0,.09-.08.3-.36.54a6.14,6.14,0,0,1-2.1,1.44q-.12.06-.06-.06t-.06-.12-.12.09-.3.27a1.43,1.43,0,0,1-.57.21q-.27,0-.27.06s-.05,0-.15.06a.91.91,0,0,1-.33,0l-.24,0a2.18,2.18,0,0,0-.84-.18,5,5,0,0,1-2.22-.72,4.15,4.15,0,0,0-1-.66q-.18,0-1-.9a13.73,13.73,0,0,1-1.35-1.74,11.8,11.8,0,0,1-1.5-6.06,12.07,12.07,0,0,1,.3-3.84,1.64,1.64,0,0,0,.06-.36,9.64,9.64,0,0,1,1-3.48l.63-1.38q.33-.72.66-1.29t.63-1.05a3.17,3.17,0,0,1,.54-.69q.24-.21.36-.15l.06-.12q-.12-.18.12-.48t.42-.3.18-.18q.18-.3,1.32-.63a7.78,7.78,0,0,1,2.16-.33,4,4,0,0,1,.66.06,5.38,5.38,0,0,1,.66.15,4.86,4.86,0,0,1,.51.18,1,1,0,0,1,.27.15q.12.18.18,0t.78.21a3.52,3.52,0,0,0,.54.33,4.59,4.59,0,0,1,.48.27,4.22,4.22,0,0,1,.36.27,2,2,0,0,1,.36.42l.42.63q.3.66.12.75t.06.15q-.18.12.06.36t.12.18a1,1,0,0,1-.09.27.91.91,0,0,0-.09.33,4.37,4.37,0,0,1-.9,2.28l-.84,1.32a1.69,1.69,0,0,1,.18-.51,1.59,1.59,0,0,0,.18-.57Zm-11.52,4.2q0,.54,0,.54l.12-1.26A2,2,0,0,0,628.2,355.12Zm.18-1.32a1,1,0,0,1,.06.24q.12-.42,0-.48Zm.6-2.88a9.94,9.94,0,0,1-.24,1.08,9.94,9.94,0,0,0-.24,1.08l.12.12.6-2.58Q628.92,350.62,629,350.92Zm1.56-3a2.72,2.72,0,0,0,.3-.54l.12-.24.24-.39q.12-.21.06-.21t-1,1.62a9,9,0,0,0-.84,1.86Zm2.25-3.36q-.27.24-.57.54a7.31,7.31,0,0,0-.54.6,2.11,2.11,0,0,0-.3.45.84.84,0,0,0-.06.18s.06-.05.18-.21a8.1,8.1,0,0,1,1.68-1.62l.42-.36q0-.12-.36.06A4.36,4.36,0,0,0,632.79,344.56Zm3.72,1.86a4.27,4.27,0,0,0-.87,1l-.18.42-.57,1.14q-.33.66-.63,1.32t-.78,1.62l-.06.42q-.12.42-.27,1t-.27,1.26q-.12.66-.15,1.05t.09.39q.18,0,1-.9a17.27,17.27,0,0,0,1.32-1.56,2.49,2.49,0,0,1,.36-.48,3,3,0,0,0,.27-.3,2,2,0,0,0,.21-.42,9.57,9.57,0,0,1,.72-1,9.51,9.51,0,0,0,1.62-3.18,5.39,5.39,0,0,0,.3-2.94,1.16,1.16,0,0,0-.12-.33.18.18,0,0,0-.15-.09.32.32,0,0,0-.18.06l-.27.18Q637.38,345.58,636.51,346.42Zm-2.31,11h.06l.3-.36Q634,357.46,634.2,357.46Zm1.5-1.5q-.18.3.06.06t.12-.3S635.78,355.8,635.7,356Zm6.84,6.24q.18,0,.18-.15t-.06-.15Q642.42,362.14,642.54,362.2Z" transform="translate(-600.78 -257.87)"/><path class="cls-1" d="M655.62,342.7q0,.18.42.18.12-.06.27.09t.27,0s.2,0,.48.09a1.23,1.23,0,0,1,.51.27,1.68,1.68,0,0,0,.54.33,1.84,1.84,0,0,0,.63.21q.12,0,.36.24a2.93,2.93,0,0,1,.45.6,2.19,2.19,0,0,1,.27.66,28.93,28.93,0,0,1,.15,5,16.86,16.86,0,0,1-.39,4.32,2.94,2.94,0,0,0,0,.9,3.68,3.68,0,0,1,.06.48q.06.18.18-.12a1.82,1.82,0,0,0,.18-.6,2.33,2.33,0,0,1,.21-.69,2.33,2.33,0,0,0,.21-.69.12.12,0,0,1,0-.09s0,0,.09,0a.06.06,0,0,0,.09,0,.27.27,0,0,0,0-.12,10,10,0,0,1,1.2-3.24,22.45,22.45,0,0,1,1.92-3.3,11.67,11.67,0,0,0,.84-1.53q.24-.57.33-.57t.27-.36a2.91,2.91,0,0,1,.69-.81q.51-.45.45-.57s-.05-.07,0-.09,0,0,.09,0,.22,0,.42-.09.24-.17.12-.21.24-.16.72-.24a6.08,6.08,0,0,1,3.18.24,4.08,4.08,0,0,1,1.62,1.29q.9,1.05.72,1.41s0,.06,0,.06q.48-.06.54,3.54,0,4.26-.24,7-.24,3.06-.24,5,.06,1.74.06,2.67a2.76,2.76,0,0,0,.06.93q.12,0,.72-.69a13.91,13.91,0,0,0,1.08-1.41,10.26,10.26,0,0,1,1.26-1.71q.6-.63.6-.78a.48.48,0,0,1,.12-.3q.12-.15.66-1.11a8.4,8.4,0,0,1,.54-.78q.3-.48.42-.42l.06-.18a5.16,5.16,0,0,1,.54-1,4,4,0,0,0,.51-1,.33.33,0,0,1,.15-.27,2.31,2.31,0,0,0,.45-.75,8.94,8.94,0,0,1,.57-1.05q.24-.36.18-.36s0-.18.27-.54a2.23,2.23,0,0,0,.33-.66,1.61,1.61,0,0,1,.72-1.14l.3-.3.12.3a.43.43,0,0,1,.06.36.1.1,0,0,0,.06.09.15.15,0,0,0,.15,0q.09-.06.12,0s0,.05,0,.09,0,.09.09.15a1.05,1.05,0,0,0,.3.15q.48.24.48.42a1.65,1.65,0,0,1-.09.33q-.09.27-.18.51a2.69,2.69,0,0,1-.24.48q-.15.24-.21.36a6,6,0,0,0-.66,1.2q-1.62,3.12-2.82,5a4.61,4.61,0,0,0-.51,1,2.79,2.79,0,0,1-.54.84,9.38,9.38,0,0,0-.75,1,18.22,18.22,0,0,1-2.88,3.66q-.36.36-.24.48v.06a3,3,0,0,0-.45.12,2.93,2.93,0,0,1-1.29-.06,3.55,3.55,0,0,1-2.1-.9,14.28,14.28,0,0,1-1.8-2.1q-.78-1.56-.72-5.82t.3-6.72a32.7,32.7,0,0,0,.06-5.94,5.46,5.46,0,0,0-.24-1.08s-.19,0-.45.18a3.75,3.75,0,0,0-.69.54,7.29,7.29,0,0,0-1.5,2.28,7.25,7.25,0,0,1-.75,1.38,2.11,2.11,0,0,0-.39.66q0,.12-.27.39a2.91,2.91,0,0,0-.54,1.05,10.34,10.34,0,0,1-.45,1.14,21,21,0,0,0-1.38,3.54q-.18.84-.3,1.23a.85.85,0,0,0-.06.51q.06.12-.12.54A22.18,22.18,0,0,0,660.6,362q-.06.18-.33.84a5.44,5.44,0,0,0-.36,1.29,1.38,1.38,0,0,1-.33.84.51.51,0,0,0-.18.51.17.17,0,0,1,.06.12q0,.18-.12.06a.12.12,0,0,0-.09,0,.24.24,0,0,0,0,.15.43.43,0,0,1-.24.42.51.51,0,0,1-.48,0q-.24-.12-.24.09t-.27.12q-.27-.09-.27.09s-.08-.06-.12-.18-.21-.24-.27-.12-.19.09-.39-.09a2.55,2.55,0,0,0-.54-.39q-.84-.24-1.32-2.94-.12-1-.12-5.34t.24-7.32a42.18,42.18,0,0,0,.06-6.78,2.58,2.58,0,0,1-.06-.48q0-.24.12-.18t.12,0a.13.13,0,0,1,.15-.15h.15Z" transform="translate(-600.78 -257.87)"/><path class="cls-1" d="M691.14,318.94q.3,0,.24.18s.14.08.42.12a1.64,1.64,0,0,1,1.08.48,4.89,4.89,0,0,1,1.56,2.22q.06.24.18.78t.18,1q.06.42.18,1.17a12.79,12.79,0,0,1,.15,1.53q0,.78,0,1.89t-.15,2.37q-.18,2.52-.18,2.67t-.06,1.65a14.52,14.52,0,0,0,.06,1.77.38.38,0,0,0,.42.33l.24-.06s.08-.06.24-.06h.69a9,9,0,0,1,1,.06,8.44,8.44,0,0,0,2.16-.06.4.4,0,0,1,.36-.06.38.38,0,0,1,.24.3,1.66,1.66,0,0,0,.48.84q.12.06-.12.27t-.06.27s-.08.06-.24.06-.44.06-.48.18v.12q.12-.06.12.06t-1.14.15q-1.14,0-2,.12a9.29,9.29,0,0,1-1.41.06q-.54,0-.54.21a9.6,9.6,0,0,0,0,1.62q.06,2.76-.18,7.74-.06,1.14-.18,3.06t-.18,3.72q-.06,1.5-.09,2.37t0,1.08a1.23,1.23,0,0,0,.06.39,1,1,0,0,1,.06.3,1.33,1.33,0,0,1,.06.42,2.58,2.58,0,0,0,0,.42.46.46,0,0,0,.09.24q1.74,3.6,4.32,1.14.54-.6.54-.48l.48-.48a4.52,4.52,0,0,1,.51-.6,6.48,6.48,0,0,0,.63-.81,12.54,12.54,0,0,1,.93-1.17,3,3,0,0,0,.57-.84,9.94,9.94,0,0,1,1.74-2.16q.3-.3.24-.36l.06-.06.12-.12s0-.22.21-.54.32-.48.42-.48.12-.05.06-.15,0-.31.27-.63a1.76,1.76,0,0,0,.36-.6q0-.12.21-.27t.15-.27.06-.12.18-.18a1.38,1.38,0,0,1,.12-.42q.12-.3.24-.54t.18-.18.48.24q.66.12.75.36t-.27.78a3.9,3.9,0,0,0-.48.9,10.11,10.11,0,0,1-1.14,1.8q-1.8,2.4-1.62,2.58h-.06s-.1,0-.18,0a.37.37,0,0,0-.12.48q.12.12-.15.27t-.18.18,0,.33l.06.12q.18-.24.18-.06t-.51.75a15.63,15.63,0,0,0-1,1.23q-1,1.2-1.14,1.08l-.06.06q.06.18-.18.42t-.24.18a.74.74,0,0,1,.12-.3l-.3.3-.12.12h.06l.12-.06q.24.06-1.2,1.56a11.52,11.52,0,0,1-1.2,1.14,3.66,3.66,0,0,1-.9.66.42.42,0,0,0-.33.21q-.15.21-.15.12t-.3.09q-.3.18-.42.06v.12s-.14.08-.42.12a7.63,7.63,0,0,1-1,.06,2.67,2.67,0,0,1-1-.18,6.52,6.52,0,0,1-1.8-1.11,3.61,3.61,0,0,1-.84-1.11q-.24-.54-.9-2.28a9.23,9.23,0,0,1-.48-3.24l.06-3.66q0-2.28.12-5.73t.24-5.94a27,27,0,0,0,.06-2.91v-.9l-1.08-.12a3.22,3.22,0,0,1-1.17-.18,1,1,0,0,0-.57-.12l-.3-.06q.24-.06.15-.15a1.28,1.28,0,0,0-.39-.21,1.18,1.18,0,0,1-.27-.12q-.09-.06,0-.18t-.06-.18-.06-.18q.06-.18-.18-.21t-.24-.15a1.64,1.64,0,0,0-.06-.36l.06-.06a.37.37,0,0,0,.42,0,.84.84,0,0,1,.6-.09,10.29,10.29,0,0,0,1.77.15,3.46,3.46,0,0,0,1.35-.09q.18-.12.18-.6t-.06-4.77q0-4.35.06-4.71a7.53,7.53,0,0,0,.09-1l.06-1.47q0-.75,0-1.77t.06-1.68q.06-1.56.12-1.86t.24-.3Zm13.56,36.48s.09,0,.15-.12,0-.12-.06-.12-.15,0-.15.12S704.66,355.42,704.7,355.42Zm.48-.12a2.7,2.7,0,0,0-.48.66q-.12.24.12,0t.18-.06q.24-.06.78-.9.24-.42.12-.42T705.18,355.3Zm2.16-3.42q-.06.18.09.18t.15-.06s0-.08-.12-.12l-.06-.06A.05.05,0,0,0,707.34,351.88Z" transform="translate(-600.78 -257.87)"/><path class="cls-2" d="M605.76,318.94q.3,0,.24.18s.14.08.42.12a1.64,1.64,0,0,1,1.08.48,4.89,4.89,0,0,1,1.56,2.22q.06.24.18.78t.18,1q.06.42.18,1.17a12.79,12.79,0,0,1,.15,1.53q0,.78,0,1.89t-.15,2.37q-.18,2.52-.18,2.67t-.06,1.65a14.52,14.52,0,0,0,.06,1.77.38.38,0,0,0,.42.33l.24-.06s.08-.06.24-.06H611a9,9,0,0,1,1,.06,8.44,8.44,0,0,0,2.16-.06.4.4,0,0,1,.36-.06.38.38,0,0,1,.24.3,1.66,1.66,0,0,0,.48.84q.12.06-.12.27t-.06.27s-.08.06-.24.06-.44.06-.48.18v.12q.12-.06.12.06t-1.14.15q-1.14,0-2,.12a9.29,9.29,0,0,1-1.41.06q-.54,0-.54.21a9.6,9.6,0,0,0,0,1.62q.06,2.76-.18,7.74-.06,1.14-.18,3.06t-.18,3.72q-.06,1.5-.09,2.37t0,1.08a1.23,1.23,0,0,0,.06.39,1,1,0,0,1,.06.3,1.33,1.33,0,0,1,.06.42,2.58,2.58,0,0,0,0,.42.46.46,0,0,0,.09.24q1.74,3.6,4.32,1.14.54-.6.54-.48l.48-.48a4.52,4.52,0,0,1,.51-.6,6.48,6.48,0,0,0,.63-.81,12.54,12.54,0,0,1,.93-1.17,3,3,0,0,0,.57-.84,9.94,9.94,0,0,1,1.74-2.16q.3-.3.24-.36l.06-.06.12-.12s0-.22.21-.54.32-.48.42-.48.12-.05.06-.15,0-.31.27-.63a1.76,1.76,0,0,0,.36-.6q0-.12.21-.27t.15-.27.06-.12.18-.18a1.38,1.38,0,0,1,.12-.42q.12-.3.24-.54t.18-.18.48.24q.66.12.75.36t-.27.78a3.9,3.9,0,0,0-.48.9,10.11,10.11,0,0,1-1.14,1.8q-1.8,2.4-1.62,2.58h-.06s-.1,0-.18,0a.37.37,0,0,0-.12.48q.12.12-.15.27t-.18.18,0,.33l.06.12q.18-.24.18-.06t-.51.75a15.63,15.63,0,0,0-1,1.23q-1,1.2-1.14,1.08l-.06.06q.06.18-.18.42t-.24.18a.74.74,0,0,1,.12-.3l-.3.3-.12.12h.06l.12-.06q.24.06-1.2,1.56a11.52,11.52,0,0,1-1.2,1.14,3.66,3.66,0,0,1-.9.66.42.42,0,0,0-.33.21q-.15.21-.15.12t-.3.09q-.3.18-.42.06v.12s-.14.08-.42.12a7.63,7.63,0,0,1-1,.06,2.67,2.67,0,0,1-1-.18,6.52,6.52,0,0,1-1.8-1.11,3.61,3.61,0,0,1-.84-1.11q-.24-.54-.9-2.28a9.47,9.47,0,0,1-.48-3.24l.06-3.66c0-1.52,0-3.43.12-5.73s.16-4.28.24-5.94a27,27,0,0,0,.06-2.91v-.9l-1.08-.12a3.33,3.33,0,0,1-1.17-.18.94.94,0,0,0-.57-.12l-.3-.06q.24-.06.15-.15a1.16,1.16,0,0,0-.39-.21,1.18,1.18,0,0,1-.27-.12c-.06,0-.06-.1,0-.18s0-.18-.06-.18-.09-.06-.06-.18,0-.19-.18-.21-.24-.07-.24-.15a1.64,1.64,0,0,0-.06-.36l.06-.06a.36.36,0,0,0,.42,0,.84.84,0,0,1,.6-.09,10.4,10.4,0,0,0,1.77.15,3.43,3.43,0,0,0,1.35-.09q.18-.12.18-.6t-.06-4.77q0-4.35.06-4.71a7.53,7.53,0,0,0,.09-1q0-.72.06-1.47t0-1.77q0-1,.06-1.68.06-1.56.12-1.86t.24-.3Zm13.56,36.48s.09,0,.15-.12,0-.12-.06-.12-.15,0-.15.12S619.28,355.42,619.32,355.42Zm.48-.12a2.7,2.7,0,0,0-.48.66q-.12.24.12,0t.18-.06q.24-.06.78-.9.24-.42.12-.42T619.8,355.3Zm2.16-3.42q-.06.18.09.18t.15-.06s0-.08-.12-.12l-.06-.06A.05.05,0,0,0,622,351.88Z" transform="translate(-600.78 -257.87)"/><path class="cls-2" d="M639.72,350.92a12.6,12.6,0,0,1-.81,1.29q-.45.63-.69,1t-.66,1a9.57,9.57,0,0,1-.81,1q-.39.42-.51.42a.16.16,0,0,0-.18.18q0,.18-.33.45t-.45.21s-.07-.05-.09,0a.24.24,0,0,0,0,.15q.06.12-.12.12t-.12.12a1.84,1.84,0,0,1-.36.45,1.7,1.7,0,0,1-.54.45l-.57.12-.42.06a.44.44,0,0,0-.24.12.4.4,0,0,0-.09.42,2.9,2.9,0,0,1,0,.84,15.05,15.05,0,0,0,.27,2q.21,1.05.39,1.17a.67.67,0,0,1,.06.3q0,.36,1,1.5a7.75,7.75,0,0,0,1.44,1.44q.24.12.9-.27a6,6,0,0,0,1.2-.93l.48-.45.63-.57a6.87,6.87,0,0,0,.54-.54,1.35,1.35,0,0,0,.33-.54q.06-.24.18-.24s.12-.11.24-.33.22-.31.3-.27h.12q-.06-.12.36-.72a3.86,3.86,0,0,0,.42-.66,3.27,3.27,0,0,1,.66-1q.78-1,.6-1s.07-.13.33-.39a11,11,0,0,0,.84-1,2.46,2.46,0,0,0,.51-.87,4.14,4.14,0,0,1,.42-.9,4.14,4.14,0,0,0,.42-.9.11.11,0,0,1,.12-.12s.1-.06.18-.18a2.35,2.35,0,0,0,.24-.54l.3-.6s0-.08.09-.12a.76.76,0,0,0,.18-.18.36.36,0,0,0,.09-.18,2,2,0,0,1,.39-.9q.39-.6.45-.72.18-.42.33-.48t.45.18q.18.24.15.09t.09-.15q.18,0,.12.24t0,.12l.15-.06q.18-.18.3-.06t.09.6a2.21,2.21,0,0,1-.57.9,2.34,2.34,0,0,0-.42.6,1.42,1.42,0,0,1-.24.51,2,2,0,0,0-.24.45.66.66,0,0,1-.24.42,6.23,6.23,0,0,0-1,1.74,1,1,0,0,1-.09.27,2.42,2.42,0,0,1-.21.39,3.06,3.06,0,0,0-.24.45l-.21.48a1.72,1.72,0,0,0-.12.39,1.89,1.89,0,0,0,0,.3.5.5,0,0,1-.12.48q-.12.06-.12.15v.21a.19.19,0,0,1-.12.18,4.15,4.15,0,0,0-1,1.38,3.81,3.81,0,0,1-.9,1.44q-.3.24-.3.39t-.12.15-.21.18a1.14,1.14,0,0,1-.21.3.35.35,0,0,1-.24.12q-.24-.12-.24.06t.12.06.12.06-.24.12a.68.68,0,0,0-.45.18.48.48,0,0,0-.21.33q0,.15.12.09l.12-.06s0,.08-.12.24-.3.24-.3.12q-.3.18-.3.36t-.12.12a.1.1,0,0,0-.12,0,.1.1,0,0,0-.06.09.1.1,0,0,1-.06.09s-.07,0-.09,0a0,0,0,0,0-.06,0s0,.05,0,.09-.08.3-.36.54a6.14,6.14,0,0,1-2.1,1.44q-.12.06-.06-.06t-.06-.12-.12.09-.3.27a1.43,1.43,0,0,1-.57.21q-.27,0-.27.06s-.05,0-.15.06a.91.91,0,0,1-.33,0l-.24,0a2.18,2.18,0,0,0-.84-.18,5,5,0,0,1-2.22-.72,4.15,4.15,0,0,0-1-.66q-.18,0-1-.9a13.73,13.73,0,0,1-1.35-1.74,11.8,11.8,0,0,1-1.5-6.06,12.07,12.07,0,0,1,.3-3.84,1.64,1.64,0,0,0,.06-.36,9.64,9.64,0,0,1,1-3.48l.63-1.38q.33-.72.66-1.29t.63-1.05a3.17,3.17,0,0,1,.54-.69q.24-.21.36-.15l.06-.12q-.12-.18.12-.48t.42-.3.18-.18q.18-.3,1.32-.63a7.78,7.78,0,0,1,2.16-.33,4,4,0,0,1,.66.06,5.38,5.38,0,0,1,.66.15,4.86,4.86,0,0,1,.51.18,1,1,0,0,1,.27.15q.12.18.18,0t.78.21a3.52,3.52,0,0,0,.54.33,4.59,4.59,0,0,1,.48.27,4.22,4.22,0,0,1,.36.27,2,2,0,0,1,.36.42l.42.63q.3.66.12.75t.06.15q-.18.12.06.36t.12.18a1,1,0,0,1-.09.27.91.91,0,0,0-.09.33,4.37,4.37,0,0,1-.9,2.28l-.84,1.32a1.69,1.69,0,0,1,.18-.51,1.59,1.59,0,0,0,.18-.57Zm-11.52,4.2q0,.54,0,.54l.12-1.26A2,2,0,0,0,628.2,355.12Zm.18-1.32a1,1,0,0,1,.06.24q.12-.42,0-.48Zm.6-2.88a9.94,9.94,0,0,1-.24,1.08,9.94,9.94,0,0,0-.24,1.08l.12.12.6-2.58Q628.92,350.62,629,350.92Zm1.56-3a2.72,2.72,0,0,0,.3-.54l.12-.24.24-.39q.12-.21.06-.21t-1,1.62a9,9,0,0,0-.84,1.86Zm2.25-3.36q-.27.24-.57.54a7.31,7.31,0,0,0-.54.6,2.11,2.11,0,0,0-.3.45.84.84,0,0,0-.06.18s.06-.05.18-.21a8.1,8.1,0,0,1,1.68-1.62l.42-.36q0-.12-.36.06A4.36,4.36,0,0,0,632.79,344.56Zm3.72,1.86a4.27,4.27,0,0,0-.87,1l-.18.42-.57,1.14q-.33.66-.63,1.32t-.78,1.62l-.06.42q-.12.42-.27,1t-.27,1.26q-.12.66-.15,1.05t.09.39q.18,0,1-.9a17.27,17.27,0,0,0,1.32-1.56,2.49,2.49,0,0,1,.36-.48,3,3,0,0,0,.27-.3,2,2,0,0,0,.21-.42,9.57,9.57,0,0,1,.72-1,9.51,9.51,0,0,0,1.62-3.18,5.39,5.39,0,0,0,.3-2.94,1.16,1.16,0,0,0-.12-.33.18.18,0,0,0-.15-.09.32.32,0,0,0-.18.06l-.27.18Q637.38,345.58,636.51,346.42Zm-2.31,11h.06l.3-.36Q634,357.46,634.2,357.46Zm1.5-1.5q-.18.3.06.06t.12-.3S635.78,355.8,635.7,356Zm6.84,6.24q.18,0,.18-.15t-.06-.15Q642.42,362.14,642.54,362.2Z" transform="translate(-600.78 -257.87)"/><path class="cls-2" d="M655.62,342.7q0,.18.42.18.12-.06.27.09t.27,0s.2,0,.48.09a1.23,1.23,0,0,1,.51.27,1.68,1.68,0,0,0,.54.33,1.84,1.84,0,0,0,.63.21q.12,0,.36.24a2.93,2.93,0,0,1,.45.6,2.19,2.19,0,0,1,.27.66,28.93,28.93,0,0,1,.15,5,16.86,16.86,0,0,1-.39,4.32,2.94,2.94,0,0,0,0,.9,3.68,3.68,0,0,1,.06.48q.06.18.18-.12a1.82,1.82,0,0,0,.18-.6,2.33,2.33,0,0,1,.21-.69,2.33,2.33,0,0,0,.21-.69.12.12,0,0,1,0-.09s0,0,.09,0a.06.06,0,0,0,.09,0,.27.27,0,0,0,0-.12,10,10,0,0,1,1.2-3.24,22.45,22.45,0,0,1,1.92-3.3,11.67,11.67,0,0,0,.84-1.53q.24-.57.33-.57t.27-.36a2.91,2.91,0,0,1,.69-.81q.51-.45.45-.57s-.05-.07,0-.09,0,0,.09,0,.22,0,.42-.09.24-.17.12-.21.24-.16.72-.24a6.08,6.08,0,0,1,3.18.24,4.08,4.08,0,0,1,1.62,1.29q.9,1.05.72,1.41s0,.06,0,.06q.48-.06.54,3.54,0,4.26-.24,7-.24,3.06-.24,5,.06,1.74.06,2.67a2.76,2.76,0,0,0,.06.93q.12,0,.72-.69a13.91,13.91,0,0,0,1.08-1.41,10.26,10.26,0,0,1,1.26-1.71q.6-.63.6-.78a.48.48,0,0,1,.12-.3q.12-.15.66-1.11a8.4,8.4,0,0,1,.54-.78q.3-.48.42-.42l.06-.18a5.16,5.16,0,0,1,.54-1,4,4,0,0,0,.51-1,.33.33,0,0,1,.15-.27,2.31,2.31,0,0,0,.45-.75,8.94,8.94,0,0,1,.57-1.05q.24-.36.18-.36s0-.18.27-.54a2.23,2.23,0,0,0,.33-.66,1.61,1.61,0,0,1,.72-1.14l.3-.3.12.3a.43.43,0,0,1,.06.36.1.1,0,0,0,.06.09.15.15,0,0,0,.15,0q.09-.06.12,0s0,.05,0,.09,0,.09.09.15a1.05,1.05,0,0,0,.3.15q.48.24.48.42a1.65,1.65,0,0,1-.09.33q-.09.27-.18.51a2.69,2.69,0,0,1-.24.48q-.15.24-.21.36a6,6,0,0,0-.66,1.2q-1.62,3.12-2.82,5a4.61,4.61,0,0,0-.51,1,2.79,2.79,0,0,1-.54.84,9.38,9.38,0,0,0-.75,1,18.22,18.22,0,0,1-2.88,3.66q-.36.36-.24.48v.06a3,3,0,0,0-.45.12,2.93,2.93,0,0,1-1.29-.06,3.55,3.55,0,0,1-2.1-.9,14.28,14.28,0,0,1-1.8-2.1q-.78-1.56-.72-5.82t.3-6.72a32.7,32.7,0,0,0,.06-5.94,5.46,5.46,0,0,0-.24-1.08s-.19,0-.45.18a3.75,3.75,0,0,0-.69.54,7.29,7.29,0,0,0-1.5,2.28,7.25,7.25,0,0,1-.75,1.38,2.11,2.11,0,0,0-.39.66q0,.12-.27.39a2.91,2.91,0,0,0-.54,1.05,10.34,10.34,0,0,1-.45,1.14,21,21,0,0,0-1.38,3.54q-.18.84-.3,1.23a.85.85,0,0,0-.06.51q.06.12-.12.54A22.18,22.18,0,0,0,660.6,362q-.06.18-.33.84a5.44,5.44,0,0,0-.36,1.29,1.38,1.38,0,0,1-.33.84.51.51,0,0,0-.18.51.17.17,0,0,1,.06.12q0,.18-.12.06a.12.12,0,0,0-.09,0,.24.24,0,0,0,0,.15.43.43,0,0,1-.24.42.51.51,0,0,1-.48,0q-.24-.12-.24.09t-.27.12q-.27-.09-.27.09s-.08-.06-.12-.18-.21-.24-.27-.12-.19.09-.39-.09a2.55,2.55,0,0,0-.54-.39q-.84-.24-1.32-2.94-.12-1-.12-5.34t.24-7.32a42.18,42.18,0,0,0,.06-6.78,2.58,2.58,0,0,1-.06-.48q0-.24.12-.18t.12,0a.13.13,0,0,1,.15-.15h.15Z" transform="translate(-600.78 -257.87)"/><path class="cls-2" d="M691.14,318.94q.3,0,.24.18s.14.08.42.12a1.64,1.64,0,0,1,1.08.48,4.89,4.89,0,0,1,1.56,2.22q.06.24.18.78t.18,1q.06.42.18,1.17a12.79,12.79,0,0,1,.15,1.53q0,.78,0,1.89t-.15,2.37q-.18,2.52-.18,2.67t-.06,1.65a14.52,14.52,0,0,0,.06,1.77.38.38,0,0,0,.42.33l.24-.06s.08-.06.24-.06h.69a9,9,0,0,1,1,.06,8.44,8.44,0,0,0,2.16-.06.4.4,0,0,1,.36-.06.38.38,0,0,1,.24.3,1.66,1.66,0,0,0,.48.84q.12.06-.12.27t-.06.27s-.08.06-.24.06-.44.06-.48.18v.12q.12-.06.12.06t-1.14.15q-1.14,0-2,.12a9.29,9.29,0,0,1-1.41.06q-.54,0-.54.21a9.6,9.6,0,0,0,0,1.62q.06,2.76-.18,7.74-.06,1.14-.18,3.06t-.18,3.72q-.06,1.5-.09,2.37t0,1.08a1.23,1.23,0,0,0,.06.39,1,1,0,0,1,.06.3,1.33,1.33,0,0,1,.06.42,2.58,2.58,0,0,0,0,.42.46.46,0,0,0,.09.24q1.74,3.6,4.32,1.14.54-.6.54-.48l.48-.48a4.52,4.52,0,0,1,.51-.6,6.48,6.48,0,0,0,.63-.81,12.54,12.54,0,0,1,.93-1.17,3,3,0,0,0,.57-.84,9.94,9.94,0,0,1,1.74-2.16q.3-.3.24-.36l.06-.06.12-.12s0-.22.21-.54.32-.48.42-.48.12-.05.06-.15,0-.31.27-.63a1.76,1.76,0,0,0,.36-.6q0-.12.21-.27t.15-.27.06-.12.18-.18a1.38,1.38,0,0,1,.12-.42q.12-.3.24-.54t.18-.18.48.24q.66.12.75.36t-.27.78a3.9,3.9,0,0,0-.48.9,10.11,10.11,0,0,1-1.14,1.8q-1.8,2.4-1.62,2.58h-.06s-.1,0-.18,0a.37.37,0,0,0-.12.48q.12.12-.15.27t-.18.18,0,.33l.06.12q.18-.24.18-.06t-.51.75a15.63,15.63,0,0,0-1,1.23q-1,1.2-1.14,1.08l-.06.06q.06.18-.18.42t-.24.18a.74.74,0,0,1,.12-.3l-.3.3-.12.12h.06l.12-.06q.24.06-1.2,1.56a11.52,11.52,0,0,1-1.2,1.14,3.66,3.66,0,0,1-.9.66.42.42,0,0,0-.33.21q-.15.21-.15.12t-.3.09q-.3.18-.42.06v.12s-.14.08-.42.12a7.63,7.63,0,0,1-1,.06,2.67,2.67,0,0,1-1-.18,6.52,6.52,0,0,1-1.8-1.11,3.61,3.61,0,0,1-.84-1.11q-.24-.54-.9-2.28a9.23,9.23,0,0,1-.48-3.24l.06-3.66q0-2.28.12-5.73t.24-5.94a27,27,0,0,0,.06-2.91v-.9l-1.08-.12a3.22,3.22,0,0,1-1.17-.18,1,1,0,0,0-.57-.12l-.3-.06q.24-.06.15-.15a1.28,1.28,0,0,0-.39-.21,1.18,1.18,0,0,1-.27-.12q-.09-.06,0-.18t-.06-.18-.06-.18q.06-.18-.18-.21t-.24-.15a1.64,1.64,0,0,0-.06-.36l.06-.06a.37.37,0,0,0,.42,0,.84.84,0,0,1,.6-.09,10.29,10.29,0,0,0,1.77.15,3.46,3.46,0,0,0,1.35-.09q.18-.12.18-.6t-.06-4.77q0-4.35.06-4.71a7.53,7.53,0,0,0,.09-1l.06-1.47q0-.75,0-1.77t.06-1.68q.06-1.56.12-1.86t.24-.3Zm13.56,36.48s.09,0,.15-.12,0-.12-.06-.12-.15,0-.15.12S704.66,355.42,704.7,355.42Zm.48-.12a2.7,2.7,0,0,0-.48.66q-.12.24.12,0t.18-.06q.24-.06.78-.9.24-.42.12-.42T705.18,355.3Zm2.16-3.42q-.06.18.09.18t.15-.06s0-.08-.12-.12l-.06-.06A.05.05,0,0,0,707.34,351.88Z" transform="translate(-600.78 -257.87)"/><path class="cls-3" d="M637.07,264.88a14.53,14.53,0,0,1,10.15-4.7,14.64,14.64,0,1,0-7.27,27,15.85,15.85,0,0,1-2-1.57A14.65,14.65,0,0,1,637.07,264.88Z" transform="translate(-600.78 -257.87)"/><path class="cls-4" d="M621.67,317.33v-3.94a.23.23,0,0,1,.23-.23L626,313a9,9,0,0,0,2-2l-1.92-2.15c-.21-.34-.05-.61.34-.61h0c.39,0,.55-.28.34-.61l-6.41-10.52c-.08-.15-.23-.15-.32,0l-6.41,10.52c-.2.33,0,.61.35.61h0c.39,0,.54.27.34.61l-2.25,3.7c-.21.33,0,.61.34.61h6.29a.23.23,0,0,1,.23.23V320" transform="translate(-600.78 -257.87)"/><path class="cls-4" d="M679.51,316v-9.55a.41.41,0,0,1,.41-.41h11.3c.71,0,1-.5.62-1.1l-4.05-6.65c-.37-.6-.09-1.09.61-1.09h0c.71,0,1-.5.62-1.1L677.5,277.19a.31.31,0,0,0-.57,0L665.41,296.1c-.37.6-.1,1.1.61,1.1h0c.71,0,1,.49.62,1.09L665,300.88c-.17.27,4.22,5.1,4.54,5.1l4.63.06a.41.41,0,0,1,.41.41V311" transform="translate(-600.78 -257.87)"/><path class="cls-5" d="M649.22,289.33a1.75,1.75,0,1,1,3.5,0" transform="translate(-600.78 -257.87)"/><line class="cls-6" x1="0.81" y1="79.98" x2="50.22" y2="30.13"/><path class="cls-7" d="M651,288l48.34,49.76Z" transform="translate(-600.78 -257.87)"/></svg>