<svg id="Calque_1" data-name="Calque 1" xmlns="http://www.w3.org/2000/svg" viewBox="0 0 235.35 149.23"><defs><style>.cls-1{stroke:#000;stroke-miterlimit:10;stroke-width:0.25px;}.cls-2{fill:#ee964b;}</style></defs><title>moka</title><path d="M329.36,656.71l8.81,29.06a3.44,3.44,0,0,1-1.81,3.71L329.42,693l-24.9,3.1-.4,0c-2.1-.13-19.53-1.27-22.35-3l-6.47-4.94c-1.75-3.69,6-25.33,7.61-31.41" transform="translate(-243.46 -546.9)"/><path d="M284.38,644l-8.49-19.54c0-.25-.3-.34-.42-.55-2.09-3.61-33.32-13.83-13.28,12.21a2.22,2.22,0,0,1,.25.42c.77,1.6,5.9,11.76,11.55,10.82,5.26-.87-.45,5.77-2.19,7.67a.68.68,0,0,1-1,.06c-4-3.49-27.09-25.86-27.29-31.43s-1.43-12.26,19-16.76c12.13-2.67,17.14-2.75,19.2-2.37a9.34,9.34,0,0,0,4.49-.2l14-4.28a.69.69,0,0,0,.46-.45c.36-1,1-4.55-2.47-10.92a.73.73,0,0,1,.23-1c1.67-1,6.86-3.79,12.41-1.49a.72.72,0,0,1,.41.79c-.49,2.47-2.37,12.32-1.11,12.32s19,5.2,20,5.5l.09,0,12,1.75a.71.71,0,0,1,.61.7v0a.72.72,0,0,0,.77.72c1.53-.1,5,0,6.33,2.88a.76.76,0,0,1-.28,1c-2,1.19-9,6.11-12.13,18.3-1.66,6.45-9,11.67-9.95,13.75Z" transform="translate(-243.46 -546.9)"/><path class="cls-1" d="M328,643.26a4.91,4.91,0,0,1-2.83-.2,5.82,5.82,0,0,0-2.31-.19,90.55,90.55,0,0,1-17.72.26c-7.65.27-12.85,1.11-15.54.39a4.75,4.75,0,0,0-2.84.06,10.61,10.61,0,0,1-2.38.41,0,0,0,0,0,0,0l-1.47,12.66s0,0,0,0c1.12.2,25.59,4.6,45.79.1l.49-.15Z" transform="translate(-243.46 -546.9)"/><path d="M363.74,547.33a46.18,46.18,0,0,0-6.14,5.49l-1.46,1.48a14.16,14.16,0,0,0-1.21,1.52,28.06,28.06,0,0,0-2,3.45,18.64,18.64,0,0,0-2.26,7.35,13.65,13.65,0,0,0,1.39,7.13,14.77,14.77,0,0,0,2,3c.86,1,1.79,2,2.74,2.91l2.83,2.89a18.82,18.82,0,0,1,1.6,1.78,6.35,6.35,0,0,1,.82,1.49,5.63,5.63,0,0,1,.37,1.83,7.44,7.44,0,0,1-.61,3,12.87,12.87,0,0,1-1.21,2.18,21.46,21.46,0,0,1-3,3.42c-.53.5-1.07,1-1.64,1.44a10,10,0,0,1-2,1.27c-1.26.66-2.5,1.11-3.27,2.15l-.48-.15a4.3,4.3,0,0,1,.93-2.15,21.93,21.93,0,0,1,1.44-1.67,8.55,8.55,0,0,0,1.17-1.45c.37-.57.76-1.12,1.1-1.69a29,29,0,0,0,1.85-3.36,5.41,5.41,0,0,0,.66-2.68c-.05-.18-.06-.19-.31-.49s-.69-.74-1.22-1.27c-1-1.08-1.91-2.11-2.81-3.25s-1.74-2.29-2.56-3.51a22.12,22.12,0,0,1-2.17-4.11,17.26,17.26,0,0,1-1-9.14,21.43,21.43,0,0,1,3.4-8.19,28.79,28.79,0,0,1,2.6-3.47,13.82,13.82,0,0,1,1.59-1.56l1.62-1.32a40.45,40.45,0,0,1,6.93-4.78Z" transform="translate(-243.46 -546.9)"/><path class="cls-2" d="M340.87,637.9l.06,2.7a12.32,12.32,0,0,1,3.93-2,15.61,15.61,0,0,1,4.53-.66,16.46,16.46,0,0,1,4.17.54,12.72,12.72,0,0,1,3.87,1.74,14.29,14.29,0,0,1,3.72-1.68,14.81,14.81,0,0,1,4.2-.6,15.71,15.71,0,0,1,5.31.93,13.14,13.14,0,0,1,4.71,2.94,15.23,15.23,0,0,1,3.42,5.1,19.51,19.51,0,0,1,1.38,7.41l.24,30.3-2.28-.06a15.42,15.42,0,0,1-.09-2q0-1.77,0-4.44t0-6v-6.54q0-3.21,0-6.06t-.09-4.65a21,21,0,0,0-1.23-7,13.72,13.72,0,0,0-2.82-4.62,10.13,10.13,0,0,0-3.87-2.55,12.65,12.65,0,0,0-4.32-.78,12.83,12.83,0,0,0-3.39.45,13.17,13.17,0,0,0-3,1.23,14,14,0,0,1,3.54,5.1,19.38,19.38,0,0,1,1.32,7.56l.24,21.6-2.28-.06q-.06-.3-.09-2.58t0-5.49v-6.69q0-3.48-.06-6.18a19.59,19.59,0,0,0-1.17-6.81,13.8,13.8,0,0,0-2.85-4.65,10.89,10.89,0,0,0-3.9-2.64,12.15,12.15,0,0,0-4.44-.84,12.41,12.41,0,0,0-4.65.9,12,12,0,0,0-3.93,2.52l.6,32.7a2.23,2.23,0,0,0-.54-.06,2.1,2.1,0,0,0-.51-.06H340q-.78,0-.78.18s0-.48,0-1.56,0-2.51-.06-4.29,0-3.82-.06-6.12,0-4.65-.06-7.05,0-4.75-.06-7,0-4.35-.06-6.15,0-3.25,0-4.35A8.59,8.59,0,0,1,339,638Z" transform="translate(-243.46 -546.9)"/><path class="cls-2" d="M382.57,660.4a22.25,22.25,0,0,1,1.26-6.78,14.36,14.36,0,0,1,2.79-4.74,11,11,0,0,1,3.87-2.76,11.3,11.3,0,0,1,4.38-.9,11.9,11.9,0,0,1,4.8,1,12.69,12.69,0,0,1,4.2,3,15.14,15.14,0,0,1,3,4.86,17.83,17.83,0,0,1,1.14,6.6,16.42,16.42,0,0,1-1.2,6.48,15.18,15.18,0,0,1-3.12,4.77,13.06,13.06,0,0,1-9.24,3.93,11.7,11.7,0,0,1-4.56-.93,10.72,10.72,0,0,1-3.9-2.82,13.45,13.45,0,0,1-2.64-4.83A19.41,19.41,0,0,1,382.57,660.4Zm2.1-.06a16,16,0,0,0,.51,5.79,11,11,0,0,0,2.19,4.14,9.14,9.14,0,0,0,3.36,2.46,10.09,10.09,0,0,0,4,.81,11,11,0,0,0,7.59-3.09,11.22,11.22,0,0,0,2.55-3.84,14.51,14.51,0,0,0,1-5.31,18.05,18.05,0,0,0-.81-6,13.06,13.06,0,0,0-2.34-4.35,9.94,9.94,0,0,0-3.39-2.64,8.94,8.94,0,0,0-7.56-.12,9.83,9.83,0,0,0-3.3,2.4,13.24,13.24,0,0,0-2.49,4.05A20,20,0,0,0,384.67,660.34Z" transform="translate(-243.46 -546.9)"/><path class="cls-2" d="M412.63,637.72l.42,23.28q.66-.54,1.68-1.53t2.22-2.22q1.2-1.23,2.55-2.58l2.67-2.67,6.54-6.78.78.66a6.22,6.22,0,0,1,.51.45q.21.21.21.33a14,14,0,0,1-1.17,1.26l-2.94,3-3.9,4L418.09,659q.66.54,1.74,1.47l2.46,2.1q1.38,1.17,2.91,2.52l3,2.67,7.68,6.66-1.8,1.62-17.46-15.6-3.54,3.6.24,12.06a2.23,2.23,0,0,0-.54-.06,2.1,2.1,0,0,0-.51-.06h-.57q-.78,0-.78.18s0-.48,0-1.56,0-2.51-.06-4.29,0-3.82-.06-6.12,0-4.66-.06-7.08,0-4.78-.06-7.08,0-4.36-.06-6.18,0-3.28,0-4.38a8.59,8.59,0,0,1,.09-1.65Z" transform="translate(-243.46 -546.9)"/><path class="cls-2" d="M458.35,644.62l.72,31.68a3.05,3.05,0,0,0-.6-.06,5.17,5.17,0,0,1-.57,0,5.17,5.17,0,0,0-.57,0q-.6,0-.6.12v-.48q0-.54,0-1.53t-.06-2.4q0-1.41-.09-3a13.28,13.28,0,0,1-11.46,6.84,11.7,11.7,0,0,1-4.56-.93,10.72,10.72,0,0,1-3.9-2.82,13.48,13.48,0,0,1-2.64-4.8,19.18,19.18,0,0,1-.78-6.87,22.25,22.25,0,0,1,1.26-6.78,14.36,14.36,0,0,1,2.79-4.74,11,11,0,0,1,8.19-3.66,12.17,12.17,0,0,1,6.09,1.65,13.18,13.18,0,0,1,4.83,4.89v-5a12.31,12.31,0,0,1,.06-2Zm-23,15.6a17.14,17.14,0,0,0,.45,5.82,10.62,10.62,0,0,0,2.07,4.08,8.58,8.58,0,0,0,3.24,2.4,9.84,9.84,0,0,0,3.84.78,10.88,10.88,0,0,0,4-.78,11.56,11.56,0,0,0,6.27-5.91,13.48,13.48,0,0,0,1.23-5v-3.06a13.71,13.71,0,0,0-1.23-4.71,11.72,11.72,0,0,0-2.43-3.45,10.13,10.13,0,0,0-3.21-2.1,9.3,9.3,0,0,0-10.5,2.37,13.34,13.34,0,0,0-2.46,4A19.14,19.14,0,0,0,435.31,660.22Z" transform="translate(-243.46 -546.9)"/><path class="cls-2" d="M461,657.76h9.3q0-1.26,0-2t0-.69s0-.34-.09-1.14a29.6,29.6,0,0,1,0-3.06,32.12,32.12,0,0,1,.42-4.08,16.31,16.31,0,0,1,1.23-4.14,9.11,9.11,0,0,1,2.43-3.24,6.52,6.52,0,0,1,4-1.44l.6,2a5.6,5.6,0,0,0-3.72,1.59,8.65,8.65,0,0,0-2,3.45,19.13,19.13,0,0,0-.84,4.5q-.18,2.46-.18,4.8,0,.48,0,1.41t.09,2h3.45q1.71,0,3.09-.06v1.74q-1.5.06-3.12.09l-3.3.09q.12,2.46.27,5.28t.27,5.34q.18,2.88.36,5.7a3.05,3.05,0,0,0-.6-.06,2.91,2.91,0,0,0-.57-.06h-.57a1.25,1.25,0,0,0-.72.12s0-.62,0-1.74-.05-2.5-.09-4.14-.08-3.4-.12-5.28-.08-3.58-.12-5.1l-3.54.09q-1.68,0-2.94.09-1.5.06-2.76.06l-.06-1.08v-.72A1.13,1.13,0,0,1,461,657.76Z" transform="translate(-243.46 -546.9)"/></svg>